<svg version="1" xmlns="http://www.w3.org/2000/svg" width="682.667" height="682.667" viewBox="0 0 512.000000 512.000000"><path d="M237.8.5c-.2.1-3.9.5-8.2.9-4.4.4-8.2.9-8.5 1.1-.4.2-3.4.7-6.6 1-11.7 1.4-47.2 11.1-49.9 13.6-.6.5-1.6.9-2.3.9-.8 0-4.9 1.6-9.1 3.5C118 37.6 91.4 56.9 65.5 85.2c-3.3 3.6-7.1 8-8.5 9.8-1.4 1.8-2.9 3.8-3.5 4.4-8.2 9.2-24.6 36.9-32.3 54.6-6.1 14.2-13.1 35.1-14.6 44.3-.3 1.5-.7 3.5-1 4.5-.3.9-.7 3.4-1.1 5.6-.3 2.1-.7 4.1-.9 4.5-.4.6-1.2 7.2-2.6 20.1-.8 8.5-.5 45.4.4 51.5.4 2.2 1.3 8 2.1 13 2.9 17.4 7.8 35.7 14.2 52 3.7 9.3 12.3 27.3 16.1 33.5 1.2 1.9 2.9 4.8 3.8 6.5 1.9 3.5 13.8 20.7 15.6 22.7.7.7 2.9 3.4 4.8 5.8 10.1 13.1 28.6 30.8 45.4 43.4 22.6 16.9 50 30.8 78.1 39.5 12.3 3.8 28.9 7.4 40.5 8.7 3 .3 7.6.9 10.2 1.3 8.7 1.4 48.6.5 60.3-1.3 103.2-15.8 186-90.1 211.4-189.6 6.2-24.2 7.6-36.5 7.6-66 0-22.6-.5-27.5-4.7-48.5-11.6-58.5-44.2-112-91.3-149.6-7.8-6.3-19.9-14.7-29-20.1-6.6-3.9-29.8-15.8-31-15.8-.4 0-2.1-.6-3.8-1.4C338 12.4 309.6 4.8 291 2.4c-2.5-.3-5.6-.8-7-1-2.7-.6-45.6-1.4-46.2-.9z"/></svg>